#!OML:ASF F:\VICON\USERDATA\INSTALL\rory3\rory3.ASF
:FULLY-SPECIFIED
:DEGREES
240
root 2.23762 16.5576 14.675 24.6293 1.47555 2.20596
lowerback -20.6233 1.00646 -1.30857
upperback -9.21823 1.60955 -0.854269
thorax 1.53653 0.831947 0.178321
lowerneck -13.9721 -0.888456 -1.42817
upperneck 37.0409 -0.503163 -0.834275
head 15.313 -0.506357 -0.176945
rclavicle -2.11209e-016 -6.95746e-015
rhumerus -36.6522 -9.68564 -68.4593
rradius 23.3099
rwrist -6.63815
rhand -1.15487 8.70713
rfingers 7.12502
rthumb 24.4838 -19.7479
lclavicle -2.11209e-016 -6.95746e-015
lhumerus -50.7867 18.4989 57.1322
lradius 47.3568
lwrist 2.41367
lhand 3.06367 18.1194
lfingers 7.12502
lthumb 28.5214 45.9644
rfemur -46.596 4.29341 29.9318
rtibia 43.1533
rfoot -45.7916 -32.2345
rtoes 40.8336
lfemur -24.7397 23.3319 -30.7973
ltibia 58.6425
lfoot -9.88655 30.8231
ltoes 42.89
241
root 2.23568 16.5684 14.6842 24.5931 1.4613 2.27267
lowerback -20.5123 1.02125 -1.33978
upperback -9.23065 1.63345 -0.87666
thorax 1.46671 0.844904 0.174839
lowerneck -13.789 -0.936822 -1.47748
upperneck 36.8669 -0.567496 -0.832661
head 15.1851 -0.539474 -0.176016
rclavicle 2.05618e-015 -3.08116e-015
rhumerus -36.9409 -9.98064 -68.3105
rradius 23.1785
rwrist -6.17856
rhand -1.00892 9.19562
rfingers 7.12502
rthumb 24.6237 -19.2405
lclavicle 2.05618e-015 -3.08116e-015
lhumerus -50.3385 18.9384 57.0497
lradius 46.5629
lwrist 1.52861
lhand 3.3895 17.1563
lfingers 7.12502
lthumb 28.8327 44.9487
rfemur -46.4485 4.19555 29.8908
rtibia 43.1807
rfoot -46.2207 -31.6067
rtoes 41.2216
lfemur -24.7319 23.339 -30.894
ltibia 58.6205
lfoot -10.2493 33.931
ltoes 41.2144
242
root 2.23075 16.5748 14.6922 24.6072 1.36132 2.54833
lowerback -20.4541 0.963181 -1.64324
upperback -9.28268 1.61287 -0.928924
thorax 1.37374 0.842837 0.284822
lowerneck -13.5448 -0.970849 -1.59924
upperneck 36.7565 -0.611591 -0.771874
head 15.0753 -0.566366 -0.134032
rclavicle 2.83641e-014 -5.86415e-015
rhumerus -37.2692 -9.40802 -68.7214
rradius 22.8245
rwrist -7.4335
rhand -2.05145 10.4165
rfingers 7.12502
rthumb 23.624 -18.1522
lclavicle 2.83641e-014 -5.86415e-015
lhumerus -50.1919 19.0073 57.1583
lradius 46.3018
lwrist 0.969822
lhand 3.51106 16.5214
lfingers 7.12502
lthumb 28.9488 44.294
rfemur -46.4072 4.34186 29.4888
rtibia 43.2267
rfoot -46.8708 -30.9901
rtoes 41.6957
lfemur -24.6972 23.3261 -31.2726
ltibia 58.5404
lfoot -14.6331 29.6246
ltoes 51.5176
243
root 2.22925 16.5752 14.6972 24.5794 1.36889 2.79446
lowerback -20.304 0.943903 -1.82418
upperback -9.38221 1.61923 -1.02434
thorax 1.18777 0.851551 0.28272
lowerneck -13.3511 -1.00541 -1.67064
upperneck 36.8565 -0.671961 -0.698681
head 15.0793 -0.591674 -0.0999626
rclavicle -1.09332e-015 5.06901e-015
rhumerus -37.6358 -9.47718 -68.7404
rradius 22.5998
rwrist -7.2211
rhand -2.10493 10.0006
rfingers 7.12502
rthumb 23.5727 -18.5747
lclavicle -1.09332e-015 5.06901e-015
lhumerus -50.1443 18.6824 57.4159
lradius 46.2693
lwrist 0.583805
lhand 3.69928 16.5675
lfingers 7.12502
lthumb 29.1286 44.3091
rfemur -46.3816 4.12804 29.2687
rtibia 43.2489
rfoot -46.9171 -30.7691
rtoes 41.7646
lfemur -24.4803 23.1733 -31.5494
ltibia 58.438
lfoot -17.6429 33.0143
ltoes 48.074
244
root 2.22739 16.5805 14.7016 24.527 1.45869 2.81522
lowerback -20.1939 0.945822 -1.79978
upperback -9.40174 1.61561 -1.04411
thorax 1.11265 0.849612 0.244703
lowerneck -13.3099 -1.04775 -1.64802
upperneck 36.8823 -0.728492 -0.737822
head 15.0821 -0.617869 -0.129589
rclavicle 1.1691e-014 -1.39149e-015
rhumerus -37.7759 -10.0982 -68.4128
rradius 22.6756
rwrist -5.44667
rhand -0.907992 8.0524
rfingers 7.12502
rthumb 24.7204 -20.3704
lclavicle 1.1691e-014 -1.39149e-015
lhumerus -49.9799 18.2787 57.7665
lradius 46.2873
lwrist 0.452644
lhand 4.1105 17.3782
lfingers 7.12502
lthumb 29.5212 45.0511
rfemur -46.2983 3.94717 29.3148
rtibia 43.2037
rfoot -46.8789 -30.7909
rtoes 41.7597
lfemur -24.4212 23.1072 -31.599
ltibia 58.3713
lfoot -18.3288 33.3083
ltoes 47.8691
245
root 2.2245 16.586 14.7101 24.4362 1.62763 2.74891
lowerback -20.2893 0.955776 -1.66403
upperback -9.18991 1.61017 -1.0329
thorax 1.3934 0.839862 0.183974
lowerneck -13.4028 -1.11726 -1.65428
upperneck 36.6112 -0.817505 -0.777543
head 14.9733 -0.661317 -0.158505
rclavicle -1.13121e-014 -1.0635e-014
rhumerus -37.6668 -10.1889 -68.5382
rradius 22.3497
rwrist -5.47174
rhand -0.941634 8.12475
rfingers 7.12502
rthumb 24.6882 -20.3025
lclavicle -1.13121e-014 -1.0635e-014
lhumerus -49.5486 17.9217 58.3498
lradius 46.4027
lwrist 0.368733
lhand 4.51936 18.093
lfingers 7.12502
lthumb 29.9114 45.6963
rfemur -46.0923 3.85028 29.4404
rtibia 43.1144
rfoot -47.0816 -30.6794
rtoes 41.7837
lfemur -24.315 23.1921 -31.4962
ltibia 58.2786
lfoot -16.3136 34.5642
ltoes 46.2765
246
root 2.21785 16.5854 14.7174 24.3786 1.7471 2.54307
lowerback -20.5301 0.987388 -1.47618
upperback -8.92813 1.62436 -0.976604
thorax 1.80116 0.838642 0.14923
lowerneck -13.442 -1.13955 -1.59262
upperneck 36.3406 -0.853413 -0.825305
head 14.852 -0.673708 -0.193467
rclavicle 9.06955e-015 8.94531e-015
rhumerus -37.4677 -10.4388 -68.6082
rradius 21.9788
rwrist -5.20277
rhand -0.695247 8.1627
rfingers 7.12502
rthumb 24.9243 -20.232
lclavicle 9.06955e-015 8.94531e-015
lhumerus -49.0637 17.4247 59.0276
lradius 46.4619
lwrist 0.316638
lhand 4.55838 18.4132
lfingers 7.12502
lthumb 29.9487 46.0097
rfemur -45.8994 4.05448 29.6226
rtibia 42.9854
rfoot -47.2526 -30.6774
rtoes 41.8207
lfemur -24.1878 23.3268 -31.2155
ltibia 58.1731
lfoot -14.5181 35.1871
ltoes 45.0306
247
root 2.21073 16.5845 14.7262 24.4605 1.76934 2.51796
lowerback -20.8401 0.999762 -1.48004
upperback -8.75832 1.65004 -0.975309
thorax 2.14023 0.848077 0.167218
lowerneck -13.5933 -1.13502 -1.56872
upperneck 36.2945 -0.85062 -0.823822
head 14.8651 -0.668642 -0.197282
rclavicle 1.08213e-014 -3.27995e-015
rhumerus -37.4731 -10.4591 -68.7787
rradius 21.7909
rwrist -5.28339
rhand -0.602083 8.21106
rfingers 7.12502
rthumb 25.0136 -20.1713
lclavicle 1.08213e-014 -3.27995e-015
lhumerus -48.5977 16.9587 59.6057
lradius 46.1612
lwrist 0.217497
lhand 4.55848 18.4047
lfingers 7.12502
lthumb 29.9488 46.0013
rfemur -45.9126 4.19951 29.6178
rtibia 42.8829
rfoot -47.0337 -30.955
rtoes 41.1418
lfemur -24.1821 23.3608 -31.1991
ltibia 57.9864
lfoot -14.9005 30.8362
ltoes 50.9511
248
root 2.2078 16.5818 14.7373 24.5094 1.97182 2.5053
lowerback -20.9854 1.01395 -1.39622
upperback -8.6776 1.65908 -1.00605
thorax 2.30401 0.848989 0.0932325
lowerneck -13.8259 -1.1944 -1.63323
upperneck 36.4083 -0.966512 -0.681922
head 14.9757 -0.707147 -0.148133
rclavicle 1.42255e-014 1.49089e-015
rhumerus -37.779 -10.5209 -68.8771
rradius 21.666
rwrist -5.34298
rhand -0.54388 8.20682
rfingers 7.12502
rthumb 25.0693 -20.1678
lclavicle 1.42255e-014 1.49089e-015
lhumerus -48.2029 16.1646 60.2563
lradius 45.8216
lwrist 0.087215
lhand 5.08232 18.4967
lfingers 7.12502
lthumb 30.4485 46.0018
rfemur -45.8985 3.92863 29.7492
rtibia 42.7947
rfoot -47.0595 -30.8849
rtoes 40.6091
lfemur -24.0654 23.2693 -31.0968
ltibia 57.7433
lfoot -12.0366 35.3585
ltoes 46.0433
249
root 2.20633 16.5824 14.7442 24.4891 2.17172 2.49401
lowerback -20.9487 1.01297 -1.29864
upperback -8.65974 1.63935 -0.997535
thorax 2.30771 0.837558 0.0421419
lowerneck -13.7806 -1.21057 -1.76933
upperneck 36.439 -0.994563 -0.557656
head 14.9822 -0.720074 -0.0764066
rclavicle -4.32978e-015 -4.96962e-016
rhumerus -38.105 -10.3816 -68.9652
rradius 21.4067
rwrist -5.17653
rhand -0.472616 8.17337
rfingers 7.12502
rthumb 25.1376 -20.1916
lclavicle -4.32978e-015 -4.96962e-016
lhumerus -48.0549 15.0188 61.0999
lradius 45.7424
lwrist 0.00964019
lhand 5.7869 19.2703
lfingers 7.12502
lthumb 31.1202 46.6488
rfemur -45.8318 3.6901 29.8531
rtibia 42.7361
rfoot -47.1715 -30.7932
rtoes 40.5766
lfemur -23.9224 23.15 -31.0112
ltibia 57.4398
lfoot -11.7438 35.3354
ltoes 45.3881
250
root 2.20496 16.5871 14.7489 24.4917 2.40107 2.45717
lowerback -20.9911 0.976289 -1.20754
upperback -8.61708 1.57448 -0.956739
thorax 2.37709 0.803774 0.0208706
lowerneck -13.5685 -1.21874 -1.81051
upperneck 36.3049 -0.992694 -0.574698
head 14.8688 -0.726501 -0.0734757
rclavicle 9.44227e-016 -1.68967e-015
rhumerus -38.3464 -10.2874 -69.0522
rradius 21.1403
rwrist -4.68247
rhand -0.553532 8.23799
rfingers 7.12502
rthumb 25.0601 -20.1379
lclavicle 9.44227e-016 -1.68967e-015
lhumerus -48.0182 13.9616 61.8795
lradius 45.6269
lwrist -0.306649
lhand 6.42837 19.9491
lfingers 7.12502
lthumb 31.7314 47.2085
rfemur -45.7802 3.35564 30.0415
rtibia 42.6785
rfoot -46.7889 -31.0072
rtoes 40.0531
lfemur -23.8465 23.0351 -30.8991
ltibia 57.1041
lfoot -10.5887 35.5653
ltoes 44.6974
251
root 2.20717 16.5915 14.7587 24.424 2.67189 2.36013
lowerback -21.0211 0.972767 -0.995751
upperback -8.57205 1.53003 -0.930322
thorax 2.44627 0.777582 -0.079901
lowerneck -13.3188 -1.27115 -1.81572
upperneck 36.1973 -1.06126 -0.61423
head 14.7599 -0.761246 -0.0975444
rclavicle 1.64991e-014 -1.18277e-014
rhumerus -38.6151 -10.7233 -68.827
rradius 20.7493
rwrist -3.66652
rhand -0.313171 8.46461
rfingers 7.12502
rthumb 25.2904 -19.8789
lclavicle 1.64991e-014 -1.18277e-014
lhumerus -48.0799 12.4707 62.792
lradius 45.4339
lwrist -0.496893
lhand 6.91237 19.9997
lfingers 7.12502
lthumb 32.1923 47.1669
rfemur -45.5827 2.5809 30.4745
rtibia 42.6102
rfoot -46.3247 -30.7219
rtoes 39.7216
lfemur -23.5981 22.8171 -30.6492
ltibia 56.7392
lfoot -10.0624 35.6291
ltoes 44.5132
252
root 2.20631 16.5955 14.7651 24.4282 2.79466 2.30238
lowerback -20.8161 0.969539 -0.866081
upperback -8.76285 1.49604 -0.913276
thorax 2.14022 0.760646 -0.149163
lowerneck -12.9478 -1.28704 -1.87353
upperneck 36.2415 -1.07465 -0.617232
head 14.6957 -0.775228 -0.0881139
rclavicle -7.88927e-016 5.96354e-016
rhumerus -39.1615 -10.9555 -68.5928
rradius 20.4459
rwrist -2.71469
rhand 0.157594 8.61087
rfingers 7.12502
rthumb 25.7413 -19.6681
lclavicle -7.88927e-016 5.96354e-016
lhumerus -48.5319 10.9077 63.6021
lradius 45.2093
lwrist -1.06567
lhand 7.54425 19.5824
lfingers 7.12502
lthumb 32.7936 46.6259
rfemur -45.5115 2.21397 30.7076
rtibia 42.5451
rfoot -46.016 -30.704
rtoes 39.4054
lfemur -23.538 22.6852 -30.5414
ltibia 56.3966
lfoot -10.3789 35.8716
ltoes 44.8296
253
root 2.20027 16.6017 14.7615 24.4732 2.86053 2.28507
lowerback -20.5716 0.915922 -0.883759
upperback -8.96191 1.42214 -0.853403
thorax 1.80034 0.72773 -0.0985795
lowerneck -12.6763 -1.26307 -1.99048
upperneck 36.3654 -1.02714 -0.57021
head 14.6929 -0.764846 -0.0390458
rclavicle -2.85753e-015 2.38542e-015
rhumerus -39.5727 -11.0724 -68.3682
rradius 19.9274
rwrist -1.70419
rhand 0.697754 8.72337
rfingers 7.12502
rthumb 26.2585 -19.4796
lclavicle -2.85753e-015 2.38542e-015
lhumerus -48.8917 9.6335 64.3614
lradius 44.9874
lwrist -1.78886
lhand 8.46355 19.5632
lfingers 7.12502
lthumb 33.6677 46.4201
rfemur -45.5483 2.44257 30.6623
rtibia 42.4889
rfoot -46.2026 -30.8887
rtoes 39.5919
lfemur -23.7382 22.5705 -30.5343
ltibia 56.0959
lfoot -7.8178 36.7998
ltoes 43.5757
254
root 2.1888 16.6044 14.7492 24.4633 2.77131 2.4367
lowerback -20.4606 0.855176 -1.17822
upperback -8.90993 1.3952 -0.833733
thorax 1.79251 0.72176 0.082149
lowerneck -12.6447 -1.22512 -2.03536
upperneck 36.3371 -0.968143 -0.54146
head 14.6723 -0.7415 -0.00933987
rclavicle -8.00108e-015 5.36719e-015
rhumerus -39.6149 -11.2689 -68.2511
rradius 19.3854
rwrist -0.690681
rhand 1.40776 8.63243
rfingers 7.12502
rthumb 26.9381 -19.4675
lclavicle -8.00108e-015 5.36719e-015
lhumerus -48.7453 8.64141 65.1818
lradius 44.524
lwrist -1.84215
lhand 9.07792 19.7324
lfingers 7.12502
lthumb 34.2513 46.46
rfemur -45.5396 3.07876 30.2809
rtibia 42.43
rfoot -46.9184 -31.0672
rtoes 39.8139
lfemur -23.92 22.465 -30.7489
ltibia 55.8003
lfoot -3.22654 37.4496
ltoes 40.1483
